<svg width="512" height="512" viewBox="0 0 512 512" fill="none" xmlns="http://www.w3.org/2000/svg">
<path d="M256 469C138.36 469 43 373.64 43 256C43 138.36 138.36 43 256 43C373.64 43 469 138.36 469 256C469 373.64 373.64 469 256 469ZM256 426.4C301.192 426.4 344.536 408.446 376.492 376.492C408.446 344.536 426.4 301.192 426.4 256C426.4 210.807 408.446 167.465 376.492 135.509C344.536 103.553 301.192 85.6 256 85.6C210.807 85.6 167.465 103.553 135.509 135.509C103.553 167.465 85.6 210.807 85.6 256C85.6 301.192 103.553 344.536 135.509 376.492C167.465 408.446 210.807 426.4 256 426.4Z" fill="#DDDDDD"/>
</svg>
