<svg width="512" height="512" viewBox="0 0 512 512" fill="none" xmlns="http://www.w3.org/2000/svg">
<path fill-rule="evenodd" clip-rule="evenodd" d="M43 256C43 138.547 138.547 43 256 43C373.453 43 469 138.547 469 256C469 373.453 373.453 469 256 469C138.547 469 43 373.453 43 256ZM248.58 326.235L363.956 210.862C370.895 203.92 370.895 192.704 363.956 185.765C357.014 178.823 345.798 178.823 338.859 185.765L236.031 288.589L190.894 243.451C183.951 236.509 172.735 236.509 165.796 243.451C158.854 250.39 158.854 261.61 165.796 268.549L223.483 326.235C226.944 329.697 231.488 331.439 236.031 331.439C240.575 331.439 245.119 329.697 248.58 326.235Z" fill="#0FCA9C"/>
</svg>
