<svg   viewBox="0 0 512 512" fill="#f44336" xmlns="http://www.w3.org/2000/svg">
<path  d="M43 256C43 138.547 138.547 43 256 43C373.453 43 469 138.547 469 256C469 373.453 373.453 469 256 469C138.547 469 43 373.453 43 256ZM334.438 334.438C341.377 327.496 341.377 316.28 334.438 309.338L281.097 256L334.438 202.662C341.377 195.72 341.377 184.504 334.438 177.562C327.496 170.623 316.28 170.623 309.338 177.562L256 230.903L202.662 177.562C195.72 170.623 184.504 170.623 177.562 177.562C170.623 184.504 170.623 195.72 177.562 202.662L230.903 256L177.562 309.338C170.623 316.28 170.623 327.496 177.562 334.438C181.023 337.9 185.567 339.639 190.114 339.639C194.657 339.639 199.201 337.9 202.662 334.438L256 281.097L309.338 334.438C312.799 337.9 317.343 339.639 321.886 339.639C326.433 339.639 330.977 337.9 334.438 334.438Z"/>
</svg>